# xmcd
#
# Track frame offsets:
# 150
# 13676
# 28126
# 45813
# 59053
# 72829
# 90679
# 104906
# 119315
# 146541
# 159073
# 176390
# 186475
# 197926
# 212514
#
# Disc length: 3165 seconds
#
#
# Revision: 0
# Processed by: cddbd v1.5.2PL0 Copyright (c) Steve Scherf et al.
# Submitted via: Nero 7, 11, 10, 0 
#
DISCID=d40c5b0f
DTITLE=Fried Bourbon - Deep Fried
DYEAR=2009
DGENRE=Blues
TTITLE0=Ding Dong
TTITLE1=My Sweet Girl
TTITLE2=Angelina
TTITLE3=Black Cat Bone
TTITLE4=Got You On My Mind
TTITLE5=Camel Chase
TTITLE6=Open Your Heart
TTITLE7=Candy
TTITLE8=The River Styx
TTITLE9=Doin' Time
TTITLE10=Biggest Little Sumpin'
TTITLE11=Loaded Dice
TTITLE12=Deep Fried Boogie
TTITLE13=On My Way
TTITLE14=We Gotta Go
EXTD=
EXTT0=Ding Dong
EXTT1=My Sweet Girl
EXTT2=Angelina
EXTT3=Black Cat Bone
EXTT4=Got You On My Mind
EXTT5=Camel Chase
EXTT6=Open Your Heart
EXTT7=Candy
EXTT8=The River Styx
EXTT9=Doin' Time
EXTT10=Biggest Little Sumpin'
EXTT11=Loaded Dice
EXTT12=Deep Fried Boogie
EXTT13=On My Way
EXTT14=We Gotta Go
PLAYORDER=
